<svg width="50" height="51" viewBox="0 0 50 51" fill="none" xmlns="http://www.w3.org/2000/svg">
<path d="M31.5333 11C35.657 11 39 14.4623 39 18.7333V32.2667C39 36.5377 35.657 40 31.5333 40H18.4667C14.3429 40 11 36.5377 11 32.2667V18.7333C11 14.4623 14.3429 11 18.4667 11H31.5333ZM20.6657 16.683L14.6841 33.5556H16.7519L18.3901 28.777H24.9775L26.6157 33.5556H28.6841L22.7019 16.683H20.6657ZM31.0983 20.9008V33.5556H32.9753V20.9008H31.0983ZM21.7473 19.352L24.3565 26.9645H19.0111L21.6203 19.352H21.7473ZM32.0529 16.1556C31.687 16.1556 31.3713 16.2846 31.1062 16.5426C30.8463 16.8008 30.716 17.1115 30.716 17.474C30.7161 17.8364 30.8464 18.1468 31.1062 18.4048C31.3713 18.6629 31.687 18.7918 32.0529 18.7918C32.4186 18.7918 32.7313 18.6628 32.9911 18.4048C33.2561 18.1468 33.389 17.8364 33.389 17.474C33.389 17.1115 33.2562 16.8008 32.9911 16.5426C32.7313 16.2846 32.4186 16.1556 32.0529 16.1556Z" fill="url(#paint0_linear_66_115)"/>
<path d="M40.0625 4.44446C40.0625 7.42503 42.441 9.84128 45.375 9.84128C42.441 9.84128 40.0625 12.2575 40.0625 15.2381C40.0625 12.2575 37.684 9.84128 34.75 9.84128C37.684 9.84128 40.0625 7.42503 40.0625 4.44446Z" fill="url(#paint1_linear_66_115)"/>
<path d="M42.875 0C42.875 1.75328 44.2741 3.1746 46 3.1746C44.2741 3.1746 42.875 4.59592 42.875 6.34921C42.875 4.59592 41.4759 3.1746 39.75 3.1746C41.4759 3.1746 42.875 1.75328 42.875 0Z" fill="url(#paint2_linear_66_115)"/>
<path d="M36.9375 3.17456C36.9375 4.40186 37.9169 5.39678 39.125 5.39678C37.9169 5.39678 36.9375 6.3917 36.9375 7.619C36.9375 6.3917 35.9581 5.39678 34.75 5.39678C35.9581 5.39678 36.9375 4.40186 36.9375 3.17456Z" fill="url(#paint3_linear_66_115)"/>
<path d="M43.5 11.4286C43.5 12.4806 44.3394 13.3334 45.375 13.3334C44.3394 13.3334 43.5 14.1861 43.5 15.2381C43.5 14.1861 42.6606 13.3334 41.625 13.3334C42.6606 13.3334 43.5 12.4806 43.5 11.4286Z" fill="url(#paint4_linear_66_115)"/>
<defs>
<linearGradient id="paint0_linear_66_115" x1="39" y1="11" x2="10.0178" y2="38.9828" gradientUnits="userSpaceOnUse">
<stop stop-color="#FFF2FE"/>
<stop offset="1" stop-color="#671FAB"/>
</linearGradient>
<linearGradient id="paint1_linear_66_115" x1="45.375" y1="4.44446" x2="34.5827" y2="15.0681" gradientUnits="userSpaceOnUse">
<stop stop-color="#FFF2FE"/>
<stop offset="1" stop-color="#671FAB"/>
</linearGradient>
<linearGradient id="paint2_linear_66_115" x1="46" y1="0" x2="39.6516" y2="6.24923" gradientUnits="userSpaceOnUse">
<stop stop-color="#FFF2FE"/>
<stop offset="1" stop-color="#671FAB"/>
</linearGradient>
<linearGradient id="paint3_linear_66_115" x1="39.125" y1="3.17456" x2="34.6811" y2="7.54902" gradientUnits="userSpaceOnUse">
<stop stop-color="#FFF2FE"/>
<stop offset="1" stop-color="#671FAB"/>
</linearGradient>
<linearGradient id="paint4_linear_66_115" x1="45.375" y1="11.4286" x2="41.5659" y2="15.1781" gradientUnits="userSpaceOnUse">
<stop stop-color="#FFF2FE"/>
<stop offset="1" stop-color="#671FAB"/>
</linearGradient>
</defs>
</svg>
