<svg width="60" height="60" viewBox="0 0 60 60" fill="none" xmlns="http://www.w3.org/2000/svg">
<path d="M30 1.875C25.4614 1.87398 21.0491 3.37007 17.4471 6.13139C13.8451 8.89271 11.2545 12.7651 10.0768 17.1483C8.89911 21.5315 9.20012 26.1807 10.9332 30.3755C12.6662 34.5702 15.7345 38.0762 19.6625 40.35C21.3775 41.345 22.45 42.87 22.4975 44.4075C22.5106 44.8193 22.659 45.2153 22.9197 45.5344C23.1805 45.8534 23.539 46.0777 23.94 46.1725C24.82 46.3792 25.715 46.5417 26.625 46.66C27.4325 46.7625 28.125 46.115 28.125 45.3V33.6475C27.3354 33.5583 26.5527 33.4155 25.7825 33.22C25.544 33.1586 25.3199 33.0508 25.123 32.9028C24.9262 32.7548 24.7604 32.5695 24.6351 32.3575C24.5099 32.1454 24.4277 31.9107 24.3931 31.6669C24.3585 31.423 24.3724 31.1748 24.4338 30.9363C24.4951 30.6977 24.6029 30.4737 24.7509 30.2768C24.8989 30.0799 25.0842 29.9141 25.2963 29.7889C25.5084 29.6637 25.743 29.5814 25.9869 29.5468C26.2307 29.5123 26.479 29.5261 26.7175 29.5875C28.8706 30.1425 31.1294 30.1425 33.2825 29.5875C33.5234 29.5181 33.7758 29.4977 34.0247 29.5275C34.2737 29.5574 34.5141 29.6368 34.7318 29.7612C34.9495 29.8856 35.14 30.0523 35.2921 30.2516C35.4442 30.4509 35.5548 30.6787 35.6174 30.9215C35.6799 31.1643 35.6931 31.4172 35.6562 31.6652C35.6193 31.9131 35.5331 32.1512 35.4025 32.3653C35.272 32.5793 35.0999 32.7651 34.8964 32.9114C34.6928 33.0578 34.462 33.1619 34.2175 33.2175C33.4473 33.4139 32.6647 33.5575 31.875 33.6475V45.2975C31.872 45.4892 31.9099 45.6793 31.9862 45.8552C32.0624 46.0311 32.1752 46.1888 32.3171 46.3177C32.4591 46.4466 32.6268 46.5438 32.8092 46.6028C32.9916 46.6618 33.1845 46.6813 33.375 46.66C34.285 46.5433 35.18 46.3808 36.06 46.1725C36.461 46.0777 36.8195 45.8534 37.0803 45.5344C37.341 45.2153 37.4894 44.8193 37.5025 44.4075C37.5525 42.87 38.6225 41.345 40.3375 40.35C44.2655 38.0762 47.3338 34.5702 49.0668 30.3755C50.7999 26.1807 51.1009 21.5315 49.9232 17.1483C48.7455 12.7651 46.1549 8.89271 42.5529 6.13139C38.9509 3.37007 34.5387 1.87398 30 1.875Z" fill="url(#paint0_linear_66_121)"/>
<path fill-rule="evenodd" clip-rule="evenodd" d="M22.5325 49.75C22.5784 49.508 22.6716 49.2774 22.8066 49.0714C22.9416 48.8654 23.1159 48.6881 23.3196 48.5495C23.5232 48.4109 23.7521 48.3138 23.9932 48.2637C24.2344 48.2135 24.483 48.2114 24.725 48.2575C28.2105 48.9199 31.7895 48.9199 35.275 48.2575C35.5199 48.2036 35.7732 48.1993 36.0198 48.245C36.2663 48.2907 36.5012 48.3854 36.7106 48.5235C36.9199 48.6616 37.0994 48.8402 37.2385 49.0489C37.3775 49.2576 37.4733 49.4921 37.5201 49.7385C37.567 49.9848 37.5639 50.2381 37.5111 50.4833C37.4583 50.7284 37.3569 50.9605 37.2129 51.1658C37.0688 51.371 36.885 51.5453 36.6724 51.6783C36.4598 51.8113 36.2226 51.9003 35.975 51.94C32.027 52.6903 27.973 52.6903 24.025 51.94C23.5368 51.8472 23.1054 51.5645 22.8255 51.1538C22.5457 50.7432 22.4403 50.2383 22.5325 49.75ZM24.385 55.86C24.4106 55.615 24.4842 55.3776 24.6016 55.1611C24.7189 54.9446 24.8778 54.7534 25.0691 54.5983C25.2604 54.4432 25.4804 54.3273 25.7164 54.2573C25.9525 54.1872 26.2001 54.1643 26.445 54.19C28.8086 54.4366 31.1914 54.4366 33.555 54.19C33.7999 54.1644 34.0475 54.1872 34.2836 54.2573C34.5196 54.3274 34.7396 54.4433 34.9309 54.5983C35.1222 54.7534 35.281 54.9446 35.3984 55.1611C35.5158 55.3776 35.5894 55.6151 35.615 55.86C35.6406 56.1049 35.6177 56.3524 35.5477 56.5885C35.4776 56.8246 35.3617 57.0446 35.2067 57.2358C35.0516 57.4271 34.8603 57.586 34.6439 57.7034C34.4274 57.8208 34.1899 57.8944 33.945 57.92C31.3223 58.1974 28.6777 58.1974 26.055 57.92C25.8101 57.8944 25.5726 57.8208 25.3561 57.7034C25.1396 57.586 24.9484 57.4272 24.7933 57.2359C24.6382 57.0446 24.5224 56.8246 24.4523 56.5885C24.3823 56.3525 24.3594 56.1049 24.385 55.86Z" fill="url(#paint1_linear_66_121)"/>
<defs>
<linearGradient id="paint0_linear_66_121" x1="30" y1="1.875" x2="30" y2="46.6707" gradientUnits="userSpaceOnUse">
<stop stop-color="#FBE4FC"/>
<stop offset="1" stop-color="#7B3BB5"/>
</linearGradient>
<linearGradient id="paint1_linear_66_121" x1="30.0265" y1="48.2136" x2="30.0265" y2="58.1281" gradientUnits="userSpaceOnUse">
<stop stop-color="#FBE4FC"/>
<stop offset="1" stop-color="#7B3BB5"/>
</linearGradient>
</defs>
</svg>
