<svg width="38" height="38" viewBox="0 0 38 38" fill="none" xmlns="http://www.w3.org/2000/svg">
<path d="M19 3.16663L19.1852 3.17771C19.5387 3.21939 19.8677 3.37892 20.1194 3.63056C20.371 3.8822 20.5306 4.21128 20.5722 4.56471L20.5833 4.74996V11.0833L20.5912 11.3208C20.6479 12.0747 20.9724 12.7835 21.5062 13.319C22.0399 13.8545 22.7476 14.1813 23.5014 14.2405L23.75 14.25H30.0833L30.2686 14.261C30.622 14.3027 30.9511 14.4623 31.2027 14.7139C31.4544 14.9655 31.6139 15.2946 31.6556 15.648L31.6666 15.8333V30.0833C31.6667 31.2949 31.2038 32.4607 30.3726 33.3422C29.5414 34.2237 28.4048 34.7543 27.1953 34.8254L26.9166 34.8333H11.0833C9.87173 34.8334 8.70591 34.3704 7.8244 33.5393C6.94289 32.7081 6.41231 31.5715 6.34123 30.362L6.33331 30.0833V7.91663C6.33325 6.70504 6.79616 5.53923 7.62735 4.65771C8.45853 3.7762 9.59515 3.24562 10.8046 3.17454L11.0833 3.16663H19Z" fill="url(#paint0_linear_66_125)"/>
<path d="M30.0833 11.0833H23.75L23.7484 4.74841L30.0833 11.0833Z" fill="url(#paint1_linear_66_125)"/>
<defs>
<linearGradient id="paint0_linear_66_125" x1="19" y1="3.16663" x2="19" y2="34.8333" gradientUnits="userSpaceOnUse">
<stop stop-color="#FBE4FC"/>
<stop offset="1" stop-color="#7B3BB5"/>
</linearGradient>
<linearGradient id="paint1_linear_66_125" x1="26.9159" y1="4.74841" x2="26.9159" y2="11.0833" gradientUnits="userSpaceOnUse">
<stop stop-color="#FBE4FC"/>
<stop offset="1" stop-color="#7B3BB5"/>
</linearGradient>
</defs>
</svg>
