<svg width="24" height="24" viewBox="0 0 24 24" fill="none" xmlns="http://www.w3.org/2000/svg">
<path d="M4 18.0571V9.31428C4 9.00667 4.071 8.71524 4.213 8.44C4.355 8.16476 4.55067 7.93809 4.8 7.76L10.8 3.38857C11.15 3.12952 11.55 3 12 3C12.45 3 12.85 3.12952 13.2 3.38857L19.2 7.76C19.45 7.93809 19.646 8.16476 19.788 8.44C19.93 8.71524 20.0007 9.00667 20 9.31428V18.0571C20 18.5914 19.804 19.049 19.412 19.4298C19.02 19.8106 18.5493 20.0006 18 20H15C14.7167 20 14.4793 19.9067 14.288 19.7202C14.0967 19.5337 14.0007 19.3032 14 19.0286V14.1714C14 13.8962 13.904 13.6656 13.712 13.4798C13.52 13.2939 13.2827 13.2006 13 13.2H11C10.7167 13.2 10.4793 13.2933 10.288 13.4798C10.0967 13.6663 10.0007 13.8968 10 14.1714V19.0286C10 19.3038 9.904 19.5347 9.712 19.7212C9.52 19.9077 9.28267 20.0006 9 20H6C5.45 20 4.97933 19.8099 4.588 19.4298C4.19667 19.0496 4.00067 18.5921 4 18.0571Z" fill="#303035"/>
</svg>
