<svg width="30" height="30" viewBox="0 0 30 30" fill="none" xmlns="http://www.w3.org/2000/svg">
<g clip-path="url(#clip0_78_78)">
<path d="M15 9.1665C16.1537 9.1665 17.2816 9.50862 18.2408 10.1496C19.2001 10.7906 19.9478 11.7016 20.3893 12.7675C20.8308 13.8334 20.9463 15.0063 20.7213 16.1379C20.4962 17.2694 19.9406 18.3088 19.1248 19.1246C18.309 19.9404 17.2696 20.496 16.138 20.7211C15.0065 20.9462 13.8336 20.8306 12.7677 20.3891C11.7018 19.9476 10.7908 19.2 10.1498 18.2407C9.50881 17.2814 9.16669 16.1536 9.16669 14.9998C9.16669 13.4527 9.78127 11.969 10.8752 10.875C11.9692 9.78109 13.4529 9.1665 15 9.1665Z" fill="#26FF00"/>
<path d="M15 28.3332C12.3629 28.3332 9.78508 27.5512 7.59242 26.0861C5.39977 24.621 3.6908 22.5386 2.68163 20.1023C1.67246 17.6659 1.40842 14.9851 1.92289 12.3986C2.43736 9.81223 3.70724 7.43645 5.57194 5.57175C7.43664 3.70705 9.81241 2.43718 12.3988 1.92271C14.9852 1.40824 17.6661 1.67228 20.1025 2.68145C22.5388 3.69062 24.6212 5.39958 26.0863 7.59224C27.5514 9.7849 28.3334 12.3628 28.3334 14.9998C28.3334 18.5361 26.9286 21.9275 24.4281 24.4279C21.9276 26.9284 18.5362 28.3332 15 28.3332ZM15 3.33318C12.6926 3.33318 10.4369 4.01741 8.51837 5.29936C6.5998 6.58131 5.10445 8.4034 4.22143 10.5352C3.33841 12.667 3.10737 15.0128 3.55753 17.2759C4.00769 19.539 5.11883 21.6178 6.75045 23.2494C8.38206 24.881 10.4609 25.9922 12.724 26.4423C14.9871 26.8925 17.3329 26.6615 19.4647 25.7784C21.5965 24.8954 23.4186 23.4001 24.7005 21.4815C25.9825 19.5629 26.6667 17.3073 26.6667 14.9998C26.6667 11.9057 25.4375 8.93819 23.2496 6.75026C21.0617 4.56234 18.0942 3.33318 15 3.33318Z" fill="#2C592A"/>
</g>
<defs>
<clipPath id="clip0_78_78">
<rect width="30" height="30" fill="white"/>
</clipPath>
</defs>
</svg>
