<svg width="110" height="110" viewBox="0 0 110 110" fill="none" xmlns="http://www.w3.org/2000/svg">
<mask id="path-1-inside-1_66_129" fill="white">
<path d="M110 55C110 85.3757 85.3757 110 55 110C24.6243 110 0 85.3757 0 55C0 24.6243 24.6243 0 55 0C85.3757 0 110 24.6243 110 55ZM14.8741 55C14.8741 77.1609 32.8391 95.1259 55 95.1259C77.1609 95.1259 95.1259 77.1609 95.1259 55C95.1259 32.8391 77.1609 14.8741 55 14.8741C32.8391 14.8741 14.8741 32.8391 14.8741 55Z"/>
</mask>
<path d="M110 55C110 85.3757 85.3757 110 55 110C24.6243 110 0 85.3757 0 55C0 24.6243 24.6243 0 55 0C85.3757 0 110 24.6243 110 55ZM14.8741 55C14.8741 77.1609 32.8391 95.1259 55 95.1259C77.1609 95.1259 95.1259 77.1609 95.1259 55C95.1259 32.8391 77.1609 14.8741 55 14.8741C32.8391 14.8741 14.8741 32.8391 14.8741 55Z" fill="#7546A1" fill-opacity="0.1" stroke="#8258AA" stroke-opacity="0.25" stroke-width="2" mask="url(#path-1-inside-1_66_129)"/>
<path d="M102.563 55C106.67 55 110.052 51.6554 109.498 47.5855C108.862 42.9119 107.626 38.3291 105.813 33.9524C103.049 27.2795 98.9981 21.2163 93.8909 16.1091C88.7836 11.0019 82.7205 6.95063 76.0476 4.18663C71.6709 2.37374 67.0881 1.13791 62.4145 0.502055C58.3446 -0.0516568 55 3.32968 55 7.43705V7.43705C55 11.5444 58.3576 14.8044 62.3946 15.5613C65.1165 16.0717 67.7847 16.8636 70.3555 17.9285C75.2238 19.945 79.6473 22.9007 83.3733 26.6267C87.0993 30.3527 90.055 34.7762 92.0715 39.6445C93.1364 42.2153 93.9283 44.8835 94.4387 47.6054C95.1956 51.6424 98.4556 55 102.563 55V55Z" fill="url(#paint0_linear_66_129)" fill-opacity="0.8"/>
<defs>
<linearGradient id="paint0_linear_66_129" x1="55" y1="0" x2="110" y2="55" gradientUnits="userSpaceOnUse">
<stop offset="0.166872" stop-color="#EEDBF5"/>
<stop offset="1" stop-color="#7B3BB6"/>
</linearGradient>
</defs>
</svg>
