<svg width="17" height="16" viewBox="0 0 17 16" fill="none" xmlns="http://www.w3.org/2000/svg">
<path d="M0.799805 8L4.28863 10.95C4.42621 11.0532 4.59831 11.0992 4.76901 11.0784C4.9397 11.0577 5.09578 10.9718 5.20463 10.8387L10.8 4" stroke="#08CB2B" stroke-width="1.6" stroke-linecap="round"/>
<path d="M0.799805 8L4.28863 10.95C4.42621 11.0532 4.59831 11.0992 4.76901 11.0784C4.9397 11.0577 5.09578 10.9718 5.20463 10.8387L10.8 4" stroke="#08CB2B" stroke-width="1.6" stroke-linecap="round"/>
<path d="M15.3945 3.29437C15.5818 3.2771 15.7684 3.33446 15.9141 3.45355C16.0596 3.57267 16.1527 3.7441 16.1729 3.93109C16.193 4.11792 16.139 4.30521 16.0225 4.45258L16.0215 4.45355L10.4385 11.2768C10.2078 11.5585 9.87577 11.7386 9.51367 11.7768C9.15149 11.815 8.7883 11.7084 8.50391 11.4809L7.3125 10.5278L7.34375 10.4887L8.18848 9.45551L8.21973 9.41742L8.25879 9.44867L9.36035 10.3295L14.9121 3.54633V3.54535C15.0335 3.40153 15.2072 3.3117 15.3945 3.29437Z" fill="#08CB2B" stroke="#08CB2B" stroke-width="0.1"/>
</svg>
